<mxfile host="app.diagrams.net" modified="2023-04-01T15:19:17.518Z" agent="Mozilla/5.0 (Windows NT 10.0; Win64; x64) AppleWebKit/537.36 (KHTML, like Gecko) Chrome/111.0.0.0 Safari/537.36" etag="ohNAxBu2EJlAgVF2NUAg" version="21.1.2" type="device">
  <diagram name="Page-1" id="wdCuB6sufGS2kOF5wtht">
    <mxGraphModel dx="1651" dy="2203" grid="1" gridSize="10" guides="1" tooltips="1" connect="1" arrows="1" fold="1" page="1" pageScale="1" pageWidth="827" pageHeight="1169" math="0" shadow="0">
      <root>
        <mxCell id="0" />
        <mxCell id="1" parent="0" />
        <mxCell id="D5LrkwyOp0ir_glRKJ9V-1" value="" style="strokeWidth=1;shadow=0;dashed=0;align=center;html=1;shape=mxgraph.mockup.containers.browserWindow;rSize=0;strokeColor=none;strokeColor2=#008cff;strokeColor3=#c4c4c4;mainText=,;recursiveResize=0;" parent="1" vertex="1">
          <mxGeometry width="1980" height="1083" as="geometry" />
        </mxCell>
        <mxCell id="D5LrkwyOp0ir_glRKJ9V-2" value="Forum" style="strokeWidth=1;shadow=0;dashed=0;align=center;html=1;shape=mxgraph.mockup.containers.anchor;fontSize=17;fontColor=#666666;align=left;whiteSpace=wrap;" parent="D5LrkwyOp0ir_glRKJ9V-1" vertex="1">
          <mxGeometry x="60" y="12" width="110" height="26" as="geometry" />
        </mxCell>
        <mxCell id="D5LrkwyOp0ir_glRKJ9V-3" value="https://localhost" style="strokeWidth=1;shadow=0;dashed=0;align=center;html=1;shape=mxgraph.mockup.containers.anchor;rSize=0;fontSize=17;fontColor=#666666;align=left;" parent="D5LrkwyOp0ir_glRKJ9V-1" vertex="1">
          <mxGeometry x="130" y="60" width="250" height="26" as="geometry" />
        </mxCell>
        <mxCell id="D5LrkwyOp0ir_glRKJ9V-4" value="" style="rounded=0;whiteSpace=wrap;html=1;strokeColor=none;fillColor=#121212;" parent="D5LrkwyOp0ir_glRKJ9V-1" vertex="1">
          <mxGeometry y="110" width="1980" height="970" as="geometry" />
        </mxCell>
        <mxCell id="D5LrkwyOp0ir_glRKJ9V-5" value="" style="rounded=0;whiteSpace=wrap;html=1;strokeColor=none;fillColor=#1F1F1F;" parent="D5LrkwyOp0ir_glRKJ9V-1" vertex="1">
          <mxGeometry x="470" y="110" width="1020" height="970" as="geometry" />
        </mxCell>
        <mxCell id="D5LrkwyOp0ir_glRKJ9V-11" style="edgeStyle=orthogonalEdgeStyle;rounded=0;orthogonalLoop=1;jettySize=auto;html=1;" parent="D5LrkwyOp0ir_glRKJ9V-1" source="D5LrkwyOp0ir_glRKJ9V-4" target="D5LrkwyOp0ir_glRKJ9V-4" edge="1">
          <mxGeometry relative="1" as="geometry" />
        </mxCell>
        <mxCell id="D5LrkwyOp0ir_glRKJ9V-19" value="" style="rounded=1;whiteSpace=wrap;html=1;strokeColor=none;fillColor=#FFFFFF;" parent="D5LrkwyOp0ir_glRKJ9V-1" vertex="1">
          <mxGeometry x="500" y="1010" width="960" height="55" as="geometry" />
        </mxCell>
        <mxCell id="D5LrkwyOp0ir_glRKJ9V-21" value="" style="ellipse;whiteSpace=wrap;html=1;aspect=fixed;" parent="D5LrkwyOp0ir_glRKJ9V-1" vertex="1">
          <mxGeometry x="500" y="940" width="40" height="40" as="geometry" />
        </mxCell>
        <mxCell id="D5LrkwyOp0ir_glRKJ9V-24" value="&lt;font size=&quot;1&quot; style=&quot;&quot;&gt;&lt;b style=&quot;font-size: 16px;&quot;&gt;Azat Karaboga&lt;/b&gt;&lt;/font&gt;" style="text;html=1;strokeColor=none;fillColor=none;align=left;verticalAlign=middle;whiteSpace=wrap;rounded=0;fontColor=#d41f42;" parent="D5LrkwyOp0ir_glRKJ9V-1" vertex="1">
          <mxGeometry x="550" y="930" width="300" height="30" as="geometry" />
        </mxCell>
        <mxCell id="D5LrkwyOp0ir_glRKJ9V-27" value="" style="rounded=0;whiteSpace=wrap;html=1;strokeColor=none;fillColor=#292929;" parent="D5LrkwyOp0ir_glRKJ9V-1" vertex="1">
          <mxGeometry x="470" y="110" width="1020" height="60" as="geometry" />
        </mxCell>
        <mxCell id="D5LrkwyOp0ir_glRKJ9V-28" value="&lt;font color=&quot;#ffffff&quot; style=&quot;font-size: 15px;&quot;&gt;&lt;font style=&quot;font-size: 15px;&quot;&gt;Text&amp;nbsp;&lt;/font&gt;Text&amp;nbsp;Text&amp;nbsp;Text&amp;nbsp;Text&amp;nbsp;Text&amp;nbsp;Text&amp;nbsp;Text&amp;nbsp;Text&amp;nbsp;Text&amp;nbsp;Text&amp;nbsp;Text&amp;nbsp;Text&amp;nbsp;Text&amp;nbsp;Text&amp;nbsp;Text&amp;nbsp;Text&amp;nbsp;Text&amp;nbsp;&lt;br&gt;Text&amp;nbsp;Text&amp;nbsp;Text&amp;nbsp;&lt;/font&gt;" style="text;html=1;strokeColor=none;fillColor=none;align=left;verticalAlign=middle;whiteSpace=wrap;rounded=0;" parent="D5LrkwyOp0ir_glRKJ9V-1" vertex="1">
          <mxGeometry x="550" y="960" width="610" height="40" as="geometry" />
        </mxCell>
        <mxCell id="D5LrkwyOp0ir_glRKJ9V-29" value="&lt;b&gt;&lt;font style=&quot;font-size: 16px;&quot;&gt;eller&lt;/font&gt;&lt;/b&gt;" style="text;html=1;strokeColor=none;fillColor=none;align=center;verticalAlign=middle;whiteSpace=wrap;rounded=0;" parent="D5LrkwyOp0ir_glRKJ9V-1" vertex="1">
          <mxGeometry x="780" y="1022.5" width="340" height="30" as="geometry" />
        </mxCell>
        <mxCell id="D5LrkwyOp0ir_glRKJ9V-30" value="&lt;font style=&quot;font-size: 15px;&quot;&gt;&lt;b&gt;Logga In&lt;/b&gt;&lt;/font&gt;" style="rounded=1;whiteSpace=wrap;html=1;strokeColor=none;fillColor=#d41f42;" parent="D5LrkwyOp0ir_glRKJ9V-1" vertex="1">
          <mxGeometry x="850" y="1019" width="80" height="37" as="geometry" />
        </mxCell>
        <mxCell id="D5LrkwyOp0ir_glRKJ9V-44" value="&lt;font style=&quot;font-size: 15px;&quot;&gt;&lt;b&gt;Skapa ett konto&lt;/b&gt;&lt;/font&gt;" style="rounded=1;whiteSpace=wrap;html=1;strokeColor=none;fillColor=#d41f42;" parent="D5LrkwyOp0ir_glRKJ9V-1" vertex="1">
          <mxGeometry x="980" y="1019" width="140" height="37" as="geometry" />
        </mxCell>
        <mxCell id="D5LrkwyOp0ir_glRKJ9V-45" value="&lt;font size=&quot;1&quot; color=&quot;#ffffff&quot;&gt;&lt;b style=&quot;font-size: 22px;&quot;&gt;Global chat&lt;/b&gt;&lt;/font&gt;" style="text;html=1;strokeColor=none;fillColor=none;align=left;verticalAlign=middle;whiteSpace=wrap;rounded=0;" parent="D5LrkwyOp0ir_glRKJ9V-1" vertex="1">
          <mxGeometry x="480" y="120" width="610" height="40" as="geometry" />
        </mxCell>
        <mxCell id="D5LrkwyOp0ir_glRKJ9V-56" value="" style="strokeWidth=1;shadow=0;dashed=0;align=center;html=1;shape=mxgraph.mockup.containers.browserWindow;rSize=0;strokeColor=none;strokeColor2=#008cff;strokeColor3=#c4c4c4;mainText=,;recursiveResize=0;" parent="1" vertex="1">
          <mxGeometry x="2130" width="1980" height="1083" as="geometry" />
        </mxCell>
        <mxCell id="D5LrkwyOp0ir_glRKJ9V-57" value="Forum" style="strokeWidth=1;shadow=0;dashed=0;align=center;html=1;shape=mxgraph.mockup.containers.anchor;fontSize=17;fontColor=#666666;align=left;whiteSpace=wrap;" parent="D5LrkwyOp0ir_glRKJ9V-56" vertex="1">
          <mxGeometry x="60" y="12" width="110" height="26" as="geometry" />
        </mxCell>
        <mxCell id="D5LrkwyOp0ir_glRKJ9V-58" value="https://localhost" style="strokeWidth=1;shadow=0;dashed=0;align=center;html=1;shape=mxgraph.mockup.containers.anchor;rSize=0;fontSize=17;fontColor=#666666;align=left;" parent="D5LrkwyOp0ir_glRKJ9V-56" vertex="1">
          <mxGeometry x="130" y="60" width="250" height="26" as="geometry" />
        </mxCell>
        <mxCell id="D5LrkwyOp0ir_glRKJ9V-59" value="" style="rounded=0;whiteSpace=wrap;html=1;strokeColor=none;fillColor=#121212;" parent="D5LrkwyOp0ir_glRKJ9V-56" vertex="1">
          <mxGeometry y="110" width="1980" height="970" as="geometry" />
        </mxCell>
        <mxCell id="D5LrkwyOp0ir_glRKJ9V-60" value="" style="rounded=1;whiteSpace=wrap;html=1;strokeColor=none;fillColor=#1F1F1F;arcSize=3;imageHeight=24;" parent="D5LrkwyOp0ir_glRKJ9V-56" vertex="1">
          <mxGeometry x="700" y="434" width="580" height="426" as="geometry" />
        </mxCell>
        <mxCell id="D5LrkwyOp0ir_glRKJ9V-61" style="edgeStyle=orthogonalEdgeStyle;rounded=0;orthogonalLoop=1;jettySize=auto;html=1;" parent="D5LrkwyOp0ir_glRKJ9V-56" source="D5LrkwyOp0ir_glRKJ9V-59" target="D5LrkwyOp0ir_glRKJ9V-59" edge="1">
          <mxGeometry relative="1" as="geometry" />
        </mxCell>
        <mxCell id="D5LrkwyOp0ir_glRKJ9V-65" value="" style="rounded=0;whiteSpace=wrap;html=1;strokeColor=none;fillColor=#292929;" parent="D5LrkwyOp0ir_glRKJ9V-56" vertex="1">
          <mxGeometry x="700" y="434" width="580" height="60" as="geometry" />
        </mxCell>
        <mxCell id="D5LrkwyOp0ir_glRKJ9V-70" value="&lt;font color=&quot;#ffffff&quot;&gt;&lt;span style=&quot;font-size: 22px;&quot;&gt;&lt;b&gt;Skapa ett konto!&lt;/b&gt;&lt;/span&gt;&lt;/font&gt;" style="text;html=1;strokeColor=none;fillColor=none;align=left;verticalAlign=middle;whiteSpace=wrap;rounded=0;" parent="D5LrkwyOp0ir_glRKJ9V-56" vertex="1">
          <mxGeometry x="710" y="444" width="560" height="40" as="geometry" />
        </mxCell>
        <mxCell id="D5LrkwyOp0ir_glRKJ9V-71" value="&lt;font color=&quot;#121212&quot; style=&quot;font-size: 15px;&quot;&gt;&lt;b&gt;Tillbaka&lt;/b&gt;&lt;/font&gt;" style="rounded=1;whiteSpace=wrap;html=1;strokeColor=none;fillColor=#d41f42;" parent="D5LrkwyOp0ir_glRKJ9V-56" vertex="1">
          <mxGeometry x="840" y="780" width="130" height="37" as="geometry" />
        </mxCell>
        <mxCell id="D5LrkwyOp0ir_glRKJ9V-72" value="" style="rounded=1;whiteSpace=wrap;html=1;strokeColor=none;fillColor=#FFFFFF;" parent="D5LrkwyOp0ir_glRKJ9V-56" vertex="1">
          <mxGeometry x="805" y="530" width="370" height="45" as="geometry" />
        </mxCell>
        <mxCell id="D5LrkwyOp0ir_glRKJ9V-73" value="" style="rounded=1;whiteSpace=wrap;html=1;strokeColor=none;fillColor=#FFFFFF;" parent="D5LrkwyOp0ir_glRKJ9V-56" vertex="1">
          <mxGeometry x="805" y="620" width="370" height="45" as="geometry" />
        </mxCell>
        <mxCell id="D5LrkwyOp0ir_glRKJ9V-74" value="&lt;font size=&quot;1&quot; color=&quot;#ffffff&quot;&gt;&lt;b style=&quot;font-size: 19px;&quot;&gt;AnvÃ¤ndarnamn&lt;/b&gt;&lt;/font&gt;" style="text;html=1;strokeColor=none;fillColor=none;align=left;verticalAlign=middle;whiteSpace=wrap;rounded=0;" parent="D5LrkwyOp0ir_glRKJ9V-56" vertex="1">
          <mxGeometry x="805" y="500" width="365" height="30" as="geometry" />
        </mxCell>
        <mxCell id="D5LrkwyOp0ir_glRKJ9V-75" value="&lt;font size=&quot;1&quot; color=&quot;#ffffff&quot;&gt;&lt;b style=&quot;font-size: 19px;&quot;&gt;LÃ¶senord&lt;/b&gt;&lt;/font&gt;" style="text;html=1;strokeColor=none;fillColor=none;align=left;verticalAlign=middle;whiteSpace=wrap;rounded=0;" parent="D5LrkwyOp0ir_glRKJ9V-56" vertex="1">
          <mxGeometry x="805" y="590" width="365" height="30" as="geometry" />
        </mxCell>
        <mxCell id="D5LrkwyOp0ir_glRKJ9V-76" value="" style="rounded=1;whiteSpace=wrap;html=1;strokeColor=none;fillColor=#FFFFFF;" parent="D5LrkwyOp0ir_glRKJ9V-56" vertex="1">
          <mxGeometry x="805" y="710" width="370" height="45" as="geometry" />
        </mxCell>
        <mxCell id="D5LrkwyOp0ir_glRKJ9V-77" value="&lt;font size=&quot;1&quot; color=&quot;#ffffff&quot;&gt;&lt;b style=&quot;font-size: 19px;&quot;&gt;Upprepa LÃ¶senord&lt;/b&gt;&lt;/font&gt;" style="text;html=1;strokeColor=none;fillColor=none;align=left;verticalAlign=middle;whiteSpace=wrap;rounded=0;" parent="D5LrkwyOp0ir_glRKJ9V-56" vertex="1">
          <mxGeometry x="805" y="680" width="365" height="30" as="geometry" />
        </mxCell>
        <mxCell id="D5LrkwyOp0ir_glRKJ9V-78" value="&lt;font style=&quot;font-size: 12px;&quot; color=&quot;#ffffff&quot;&gt;&lt;u&gt;Logga in&lt;/u&gt; istÃ¤llet&lt;/font&gt;" style="text;html=1;strokeColor=none;fillColor=none;align=center;verticalAlign=middle;whiteSpace=wrap;rounded=0;" parent="D5LrkwyOp0ir_glRKJ9V-56" vertex="1">
          <mxGeometry x="945" y="820" width="90" height="30" as="geometry" />
        </mxCell>
        <mxCell id="FbByiruJ8b2dWKca3bUt-14" value="&lt;font color=&quot;#121212&quot; style=&quot;font-size: 15px;&quot;&gt;&lt;b&gt;Skapa konto&lt;/b&gt;&lt;/font&gt;" style="rounded=1;whiteSpace=wrap;html=1;strokeColor=none;fillColor=#d41f42;" vertex="1" parent="D5LrkwyOp0ir_glRKJ9V-56">
          <mxGeometry x="990" y="780" width="130" height="37" as="geometry" />
        </mxCell>
        <mxCell id="D5LrkwyOp0ir_glRKJ9V-79" value="" style="strokeWidth=1;shadow=0;dashed=0;align=center;html=1;shape=mxgraph.mockup.containers.browserWindow;rSize=0;strokeColor=none;strokeColor2=#008cff;strokeColor3=#c4c4c4;mainText=,;recursiveResize=0;" parent="1" vertex="1">
          <mxGeometry x="4280" width="1980" height="1083" as="geometry" />
        </mxCell>
        <mxCell id="D5LrkwyOp0ir_glRKJ9V-80" value="Forum" style="strokeWidth=1;shadow=0;dashed=0;align=center;html=1;shape=mxgraph.mockup.containers.anchor;fontSize=17;fontColor=#666666;align=left;whiteSpace=wrap;" parent="D5LrkwyOp0ir_glRKJ9V-79" vertex="1">
          <mxGeometry x="60" y="12" width="110" height="26" as="geometry" />
        </mxCell>
        <mxCell id="D5LrkwyOp0ir_glRKJ9V-81" value="https://localhost" style="strokeWidth=1;shadow=0;dashed=0;align=center;html=1;shape=mxgraph.mockup.containers.anchor;rSize=0;fontSize=17;fontColor=#666666;align=left;" parent="D5LrkwyOp0ir_glRKJ9V-79" vertex="1">
          <mxGeometry x="130" y="60" width="250" height="26" as="geometry" />
        </mxCell>
        <mxCell id="D5LrkwyOp0ir_glRKJ9V-82" value="" style="rounded=0;whiteSpace=wrap;html=1;strokeColor=none;fillColor=#121212;" parent="D5LrkwyOp0ir_glRKJ9V-79" vertex="1">
          <mxGeometry y="110" width="1980" height="970" as="geometry" />
        </mxCell>
        <mxCell id="D5LrkwyOp0ir_glRKJ9V-83" value="" style="rounded=1;whiteSpace=wrap;html=1;strokeColor=none;fillColor=#1F1F1F;arcSize=3;imageHeight=24;" parent="D5LrkwyOp0ir_glRKJ9V-79" vertex="1">
          <mxGeometry x="700" y="434" width="580" height="316" as="geometry" />
        </mxCell>
        <mxCell id="D5LrkwyOp0ir_glRKJ9V-84" style="edgeStyle=orthogonalEdgeStyle;rounded=0;orthogonalLoop=1;jettySize=auto;html=1;" parent="D5LrkwyOp0ir_glRKJ9V-79" source="D5LrkwyOp0ir_glRKJ9V-82" target="D5LrkwyOp0ir_glRKJ9V-82" edge="1">
          <mxGeometry relative="1" as="geometry" />
        </mxCell>
        <mxCell id="D5LrkwyOp0ir_glRKJ9V-85" value="" style="rounded=0;whiteSpace=wrap;html=1;strokeColor=none;fillColor=#292929;" parent="D5LrkwyOp0ir_glRKJ9V-79" vertex="1">
          <mxGeometry x="700" y="434" width="580" height="60" as="geometry" />
        </mxCell>
        <mxCell id="D5LrkwyOp0ir_glRKJ9V-86" value="&lt;font color=&quot;#ffffff&quot;&gt;&lt;span style=&quot;font-size: 22px;&quot;&gt;&lt;b&gt;Logga in!&lt;/b&gt;&lt;/span&gt;&lt;/font&gt;" style="text;html=1;strokeColor=none;fillColor=none;align=left;verticalAlign=middle;whiteSpace=wrap;rounded=0;" parent="D5LrkwyOp0ir_glRKJ9V-79" vertex="1">
          <mxGeometry x="710" y="444" width="560" height="40" as="geometry" />
        </mxCell>
        <mxCell id="D5LrkwyOp0ir_glRKJ9V-87" value="&lt;font style=&quot;font-size: 15px;&quot;&gt;&lt;b&gt;Logga in&lt;/b&gt;&lt;/font&gt;" style="rounded=1;whiteSpace=wrap;html=1;strokeColor=none;fillColor=#d41f42;" parent="D5LrkwyOp0ir_glRKJ9V-79" vertex="1">
          <mxGeometry x="1000" y="680" width="105" height="37" as="geometry" />
        </mxCell>
        <mxCell id="D5LrkwyOp0ir_glRKJ9V-88" value="" style="rounded=1;whiteSpace=wrap;html=1;strokeColor=none;fillColor=#FFFFFF;" parent="D5LrkwyOp0ir_glRKJ9V-79" vertex="1">
          <mxGeometry x="805" y="530" width="370" height="45" as="geometry" />
        </mxCell>
        <mxCell id="D5LrkwyOp0ir_glRKJ9V-89" value="" style="rounded=1;whiteSpace=wrap;html=1;strokeColor=none;fillColor=#FFFFFF;" parent="D5LrkwyOp0ir_glRKJ9V-79" vertex="1">
          <mxGeometry x="805" y="620" width="370" height="45" as="geometry" />
        </mxCell>
        <mxCell id="D5LrkwyOp0ir_glRKJ9V-90" value="&lt;font size=&quot;1&quot; color=&quot;#ffffff&quot;&gt;&lt;b style=&quot;font-size: 19px;&quot;&gt;AnvÃ¤ndarnamn&lt;/b&gt;&lt;/font&gt;" style="text;html=1;strokeColor=none;fillColor=none;align=left;verticalAlign=middle;whiteSpace=wrap;rounded=0;" parent="D5LrkwyOp0ir_glRKJ9V-79" vertex="1">
          <mxGeometry x="805" y="500" width="365" height="30" as="geometry" />
        </mxCell>
        <mxCell id="D5LrkwyOp0ir_glRKJ9V-91" value="&lt;font size=&quot;1&quot; color=&quot;#ffffff&quot;&gt;&lt;b style=&quot;font-size: 19px;&quot;&gt;LÃ¶senord&lt;/b&gt;&lt;/font&gt;" style="text;html=1;strokeColor=none;fillColor=none;align=left;verticalAlign=middle;whiteSpace=wrap;rounded=0;" parent="D5LrkwyOp0ir_glRKJ9V-79" vertex="1">
          <mxGeometry x="805" y="590" width="365" height="30" as="geometry" />
        </mxCell>
        <mxCell id="D5LrkwyOp0ir_glRKJ9V-94" value="&lt;font style=&quot;font-size: 12px;&quot; color=&quot;#ffffff&quot;&gt;&lt;u&gt;Skapa Konto&lt;/u&gt;&amp;nbsp;istÃ¤llet&lt;/font&gt;" style="text;html=1;strokeColor=none;fillColor=none;align=center;verticalAlign=middle;whiteSpace=wrap;rounded=0;" parent="D5LrkwyOp0ir_glRKJ9V-79" vertex="1">
          <mxGeometry x="932.5" y="717" width="115" height="30" as="geometry" />
        </mxCell>
        <mxCell id="FbByiruJ8b2dWKca3bUt-29" value="&lt;font style=&quot;font-size: 15px;&quot;&gt;&lt;b&gt;Tillbaka&lt;/b&gt;&lt;/font&gt;" style="rounded=1;whiteSpace=wrap;html=1;strokeColor=none;fillColor=#d41f42;" vertex="1" parent="D5LrkwyOp0ir_glRKJ9V-79">
          <mxGeometry x="870" y="680" width="105" height="37" as="geometry" />
        </mxCell>
        <mxCell id="D5LrkwyOp0ir_glRKJ9V-95" value="" style="strokeWidth=1;shadow=0;dashed=0;align=center;html=1;shape=mxgraph.mockup.containers.browserWindow;rSize=0;strokeColor=none;strokeColor2=#008cff;strokeColor3=#c4c4c4;mainText=,;recursiveResize=0;" parent="1" vertex="1">
          <mxGeometry x="6370" width="1980" height="1083" as="geometry" />
        </mxCell>
        <mxCell id="D5LrkwyOp0ir_glRKJ9V-96" value="Forum" style="strokeWidth=1;shadow=0;dashed=0;align=center;html=1;shape=mxgraph.mockup.containers.anchor;fontSize=17;fontColor=#666666;align=left;whiteSpace=wrap;" parent="D5LrkwyOp0ir_glRKJ9V-95" vertex="1">
          <mxGeometry x="60" y="12" width="110" height="26" as="geometry" />
        </mxCell>
        <mxCell id="D5LrkwyOp0ir_glRKJ9V-97" value="https://localhost" style="strokeWidth=1;shadow=0;dashed=0;align=center;html=1;shape=mxgraph.mockup.containers.anchor;rSize=0;fontSize=17;fontColor=#666666;align=left;" parent="D5LrkwyOp0ir_glRKJ9V-95" vertex="1">
          <mxGeometry x="130" y="60" width="250" height="26" as="geometry" />
        </mxCell>
        <mxCell id="D5LrkwyOp0ir_glRKJ9V-98" value="" style="rounded=0;whiteSpace=wrap;html=1;strokeColor=none;fillColor=#121212;" parent="D5LrkwyOp0ir_glRKJ9V-95" vertex="1">
          <mxGeometry y="110" width="1980" height="970" as="geometry" />
        </mxCell>
        <mxCell id="D5LrkwyOp0ir_glRKJ9V-99" value="" style="rounded=1;whiteSpace=wrap;html=1;strokeColor=none;fillColor=#1F1F1F;arcSize=3;imageHeight=24;" parent="D5LrkwyOp0ir_glRKJ9V-95" vertex="1">
          <mxGeometry x="700" y="434" width="580" height="316" as="geometry" />
        </mxCell>
        <mxCell id="D5LrkwyOp0ir_glRKJ9V-100" style="edgeStyle=orthogonalEdgeStyle;rounded=0;orthogonalLoop=1;jettySize=auto;html=1;" parent="D5LrkwyOp0ir_glRKJ9V-95" source="D5LrkwyOp0ir_glRKJ9V-98" target="D5LrkwyOp0ir_glRKJ9V-98" edge="1">
          <mxGeometry relative="1" as="geometry" />
        </mxCell>
        <mxCell id="D5LrkwyOp0ir_glRKJ9V-101" value="" style="rounded=0;whiteSpace=wrap;html=1;strokeColor=none;fillColor=#292929;" parent="D5LrkwyOp0ir_glRKJ9V-95" vertex="1">
          <mxGeometry x="700" y="434" width="580" height="60" as="geometry" />
        </mxCell>
        <mxCell id="D5LrkwyOp0ir_glRKJ9V-102" value="&lt;font color=&quot;#ffffff&quot;&gt;&lt;span style=&quot;font-size: 22px;&quot;&gt;&lt;b&gt;VÃ¤lj Avatar&lt;/b&gt;&lt;/span&gt;&lt;/font&gt;" style="text;html=1;strokeColor=none;fillColor=none;align=left;verticalAlign=middle;whiteSpace=wrap;rounded=0;" parent="D5LrkwyOp0ir_glRKJ9V-95" vertex="1">
          <mxGeometry x="710" y="444" width="560" height="40" as="geometry" />
        </mxCell>
        <mxCell id="D5LrkwyOp0ir_glRKJ9V-103" value="&lt;font style=&quot;font-size: 15px;&quot;&gt;&lt;b&gt;Byt Avatar&lt;br&gt;&lt;/b&gt;&lt;/font&gt;" style="rounded=1;whiteSpace=wrap;html=1;strokeColor=none;fillColor=#d41f42;" parent="D5LrkwyOp0ir_glRKJ9V-95" vertex="1">
          <mxGeometry x="1020" y="680" width="100" height="37" as="geometry" />
        </mxCell>
        <mxCell id="D5LrkwyOp0ir_glRKJ9V-110" value="&lt;font style=&quot;font-size: 15px;&quot;&gt;&lt;b&gt;Tillbaka&lt;br&gt;&lt;/b&gt;&lt;/font&gt;" style="rounded=1;whiteSpace=wrap;html=1;strokeColor=none;fillColor=#d41f42;" parent="D5LrkwyOp0ir_glRKJ9V-95" vertex="1">
          <mxGeometry x="850" y="680" width="105" height="37" as="geometry" />
        </mxCell>
        <mxCell id="D5LrkwyOp0ir_glRKJ9V-111" value="" style="ellipse;whiteSpace=wrap;html=1;aspect=fixed;strokeColor=none;" parent="D5LrkwyOp0ir_glRKJ9V-95" vertex="1">
          <mxGeometry x="940" y="542" width="100" height="100" as="geometry" />
        </mxCell>
        <mxCell id="D5LrkwyOp0ir_glRKJ9V-113" value="" style="endArrow=none;html=1;rounded=0;" parent="1" edge="1">
          <mxGeometry width="50" height="50" relative="1" as="geometry">
            <mxPoint x="7344" y="593" as="sourcePoint" />
            <mxPoint x="7375" y="593" as="targetPoint" />
          </mxGeometry>
        </mxCell>
        <mxCell id="D5LrkwyOp0ir_glRKJ9V-114" value="" style="endArrow=none;html=1;rounded=0;" parent="1" edge="1">
          <mxGeometry width="50" height="50" relative="1" as="geometry">
            <mxPoint x="7360" y="607" as="sourcePoint" />
            <mxPoint x="7360" y="578" as="targetPoint" />
          </mxGeometry>
        </mxCell>
      </root>
    </mxGraphModel>
  </diagram>
</mxfile>
